#!OML:ASF F:\VICON\USERDATA\INSTALL\rory3\rory3.ASF
:FULLY-SPECIFIED
:DEGREES
121
root -11.7278 17.8008 0.213311 -145.878 84.8698 -144.872
lowerback 12.2321 1.26027 -0.936783
upperback 1.2505 1.62583 0.388354
thorax -5.58338 0.848569 0.659826
lowerneck -14.7072 -7.66887 -12.8404
upperneck 35.1467 -9.83554 9.75323
head 16.2582 -4.16098 4.79198
rclavicle 6.26172e-015 -7.95139e-016
rhumerus -34.3577 -17.2065 -74.3872
rradius 32.7264
rwrist 8.2293
rhand -21.3129 5.51778
rfingers 7.12502
rthumb 5.07223 -24.4015
lclavicle 6.26172e-015 -7.95139e-016
lhumerus -36.9668 12.4528 77.3548
lradius 35.0141
lwrist -8.13477
lhand -21.5807 24.4744
lfingers 7.12502
lthumb 4.81364 54.3997
rfemur -1.23876 0.780449 15.5729
rtibia 20.4571
rfoot -14.7477 1.42734
rtoes -6.3926
lfemur -9.90488 -13.6703 -3.08494
ltibia 32.4168
lfoot -8.19338 9.77216
ltoes 4.34183
122
root -11.7312 17.8046 0.29474 -147.458 84.7599 -146.451
lowerback 12.2151 1.22745 -0.845955
upperback 1.26408 1.5934 0.359929
thorax -5.55569 0.830332 0.584832
lowerneck -14.6657 -7.67749 -12.9895
upperneck 35.1102 -9.8614 9.91233
head 16.2583 -4.17196 4.88482
rclavicle -9.39258e-015 -9.14409e-015
rhumerus -34.2936 -17.3603 -74.1224
rradius 32.9009
rwrist 8.33882
rhand -21.0731 5.578
rfingers 7.12502
rthumb 5.30381 -24.3356
lclavicle -9.39258e-015 -9.14409e-015
lhumerus -36.9633 12.2481 77.7034
lradius 34.9356
lwrist -8.08389
lhand -21.4551 24.2726
lfingers 7.12502
lthumb 4.93495 54.1951
rfemur -1.44099 0.882993 15.841
rtibia 20.9245
rfoot -15.0476 1.08757
rtoes -5.98779
lfemur -10.2621 -13.3388 -3.8649
ltibia 33.1203
lfoot -9.40539 8.72654
ltoes 3.29643
123
root -11.7389 17.8055 0.374984 -150.475 84.6937 -149.427
lowerback 12.272 1.20118 -0.861762
upperback 1.29561 1.55354 0.296513
thorax -5.55191 0.810843 0.533159
lowerneck -14.6339 -7.71072 -13.2361
upperneck 35.0862 -9.8979 10.084
head 16.2783 -4.19908 4.99908
rclavicle 2.5842e-015 -3.57812e-015
rhumerus -34.222 -17.3455 -73.9169
rradius 33.0813
rwrist 8.13173
rhand -21.4246 5.40646
rfingers 7.12502
rthumb 4.9644 -24.5154
lclavicle 2.5842e-015 -3.57812e-015
lhumerus -36.9592 12.2073 77.9699
lradius 34.8552
lwrist -8.34066
lhand -21.766 24.2357
lfingers 7.12502
lthumb 4.63473 54.165
rfemur -1.55608 1.09288 15.9693
rtibia 21.2856
rfoot -15.2358 0.579127
rtoes -5.97351
lfemur -10.6104 -12.8683 -4.83804
ltibia 33.8383
lfoot -10.5721 7.6412
ltoes 1.12064
124
root -11.7455 17.8056 0.453428 -153.205 84.623 -152.139
lowerback 12.2536 1.19008 -0.91072
upperback 1.35892 1.53307 0.275061
thorax -5.47528 0.802079 0.542866
lowerneck -14.6542 -7.75468 -13.4462
upperneck 35.0291 -9.93328 10.1867
head 16.2857 -4.22978 5.07204
rclavicle 1.15295e-014 -1.07344e-014
rhumerus -34.111 -17.0916 -73.7461
rradius 33.2965
rwrist 7.65678
rhand -21.9405 5.09037
rfingers 7.12502
rthumb 4.46618 -24.8425
lclavicle 1.15295e-014 -1.07344e-014
lhumerus -36.8598 12.3431 78.2532
lradius 34.7256
lwrist -8.70499
lhand -21.8732 24.3718
lfingers 7.12502
lthumb 4.53125 54.3033
rfemur -1.67503 1.30907 16.102
rtibia 21.6003
rfoot -15.3655 0.146626
rtoes -5.65709
lfemur -10.914 -12.4774 -5.87569
ltibia 34.5293
lfoot -11.589 6.93475
ltoes -2.46598
125
root -11.7486 17.8083 0.535278 -154.377 84.5251 -153.228
lowerback 12.3402 1.22323 -0.886742
upperback 1.38786 1.5801 0.259282
thorax -5.49264 0.825031 0.503364
lowerneck -14.6024 -7.78804 -13.432
upperneck 34.9522 -9.97682 10.1481
head 16.2373 -4.25249 5.03885
rclavicle 2.20651e-014 -7.15625e-015
rhumerus -34.1641 -17.0716 -73.5347
rradius 33.561
rwrist 7.16585
rhand -22.2156 5.07966
rfingers 7.12502
rthumb 4.20059 -24.8587
lclavicle 2.20651e-014 -7.15625e-015
lhumerus -36.9023 12.4726 78.424
lradius 34.7593
lwrist -9.09264
lhand -21.4751 24.2833
lfingers 7.12502
lthumb 4.91562 54.2063
rfemur -1.71958 1.5942 16.4179
rtibia 21.923
rfoot -15.5642 -0.251831
rtoes -4.85696
lfemur -11.0801 -12.2331 -6.78281
ltibia 35.1943
lfoot -12.7088 6.32276
ltoes -3.32422
126
root -11.7504 17.8119 0.622133 -155.759 84.4214 -154.502
lowerback 12.4374 1.20627 -1.01204
upperback 1.42477 1.54273 0.279985
thorax -5.51094 0.810263 0.600431
lowerneck -14.6632 -7.77381 -13.3279
upperneck 34.9776 -9.9155 9.96732
head 16.2317 -4.23472 4.95003
rclavicle 9.29318e-015 -2.78299e-015
rhumerus -34.1566 -16.9547 -73.4407
rradius 33.7886
rwrist 6.60516
rhand -22.5192 5.39315
rfingers 7.12502
rthumb 3.90743 -24.5508
lclavicle 9.29318e-015 -2.78299e-015
lhumerus -37.0384 13.0196 78.4114
lradius 34.8478
lwrist -9.67511
lhand -21.2463 24.0779
lfingers 7.12502
lthumb 5.13657 53.9956
rfemur -1.72139 1.86233 16.7402
rtibia 22.2305
rfoot -15.7892 -0.59165
rtoes -4.29789
lfemur -11.2333 -11.9148 -7.63854
ltibia 35.8517
lfoot -13.7924 5.12757
ltoes -1.46481
127
root -11.7503 17.8125 0.699849 -157.56 84.3 -156.292
lowerback 12.3623 1.18934 -1.04565
upperback 1.46985 1.5157 0.24546
thorax -5.42111 0.797435 0.589875
lowerneck -14.6514 -7.76051 -13.1728
upperneck 34.8938 -9.8789 9.78953
head 16.1531 -4.22306 4.84333
rclavicle 1.54058e-014 -1.98785e-015
rhumerus -34.1009 -17.0825 -73.2747
rradius 33.8847
rwrist 6.47114
rhand -22.718 5.49627
rfingers 7.12502
rthumb 3.71546 -24.4511
lclavicle 1.54058e-014 -1.98785e-015
lhumerus -37.0224 13.3078 78.5059
lradius 34.8301
lwrist -9.91458
lhand -21.5683 24.2815
lfingers 7.12502
lthumb 4.82563 54.2065
rfemur -1.84669 1.80324 16.9195
rtibia 22.5687
rfoot -15.9787 -0.72528
rtoes -4.04257
lfemur -11.4944 -11.2707 -8.56994
ltibia 36.4929
lfoot -14.7458 3.70669
ltoes -0.42284
128
root -11.7504 17.8097 0.766122 -158.364 84.16 -157.17
lowerback 12.1813 1.19432 -0.852103
upperback 1.49448 1.54716 0.197201
thorax -5.28885 0.808015 0.429082
lowerneck -14.6109 -7.77357 -13.1093
upperneck 34.8017 -9.89774 9.73018
head 16.0899 -4.23155 4.79649
rclavicle -4.77083e-015 2.78299e-015
rhumerus -34.0434 -17.2629 -73.0446
rradius 33.9056
rwrist 6.31903
rhand -22.8708 5.62022
rfingers 7.12502
rthumb 3.56784 -24.3297
lclavicle -4.77083e-015 2.78299e-015
lhumerus -36.9051 13.1163 78.7206
lradius 34.7093
lwrist -9.77751
lhand -21.6874 24.4187
lfingers 7.12502
lthumb 4.71064 54.3463
rfemur -2.13511 1.66721 17.13
rtibia 23.0231
rfoot -16.1852 -0.763802
rtoes -3.22628
lfemur -11.8318 -10.2049 -9.52478
ltibia 37.1035
lfoot -15.7827 2.68666
ltoes -1.94351
129
root -11.7514 17.8015 0.83215 -159.903 83.9662 -158.778
lowerback 12.0552 1.16871 -0.727178
upperback 1.48944 1.52745 0.151416
thorax -5.21934 0.79502 0.316671
lowerneck -14.5583 -7.78309 -13.1924
upperneck 34.7507 -9.89372 9.74651
head 16.0588 -4.23997 4.81732
rclavicle 6.16232e-015 1.59028e-015
rhumerus -34.0145 -17.3399 -72.8482
rradius 33.9761
rwrist 5.86599
rhand -22.9658 5.64608
rfingers 7.12502
rthumb 3.47612 -24.3053
lclavicle 6.16232e-015 1.59028e-015
lhumerus -36.8502 12.8308 78.9423
lradius 34.6231
lwrist -9.5561
lhand -21.5058 24.4899
lfingers 7.12502
lthumb 4.88594 54.4136
rfemur -2.45133 1.77681 17.3318
rtibia 23.604
rfoot -16.4508 -1.15571
rtoes -2.8713
lfemur -12.1471 -9.06103 -10.6029
ltibia 37.6593
lfoot -16.8234 2.08851
ltoes -4.86565
130
root -11.7502 17.7934 0.89628 -163.569 83.821 -162.565
lowerback 11.9643 1.14382 -0.933165
upperback 1.41059 1.46281 0.106687
thorax -5.25486 0.76614 0.397471
lowerneck -14.5417 -7.78391 -13.3092
upperneck 34.8447 -9.81582 9.63676
head 16.0909 -4.23518 4.80958
rclavicle -1.53561e-014 -7.15625e-015
rhumerus -34.0424 -17.5866 -72.4796
rradius 33.9962
rwrist 5.71903
rhand -22.9598 5.73706
rfingers 7.12502
rthumb 3.48188 -24.2143
lclavicle -1.53561e-014 -7.15625e-015
lhumerus -36.991 12.7394 79.2167
lradius 34.6731
lwrist -9.39501
lhand -21.5876 24.7304
lfingers 7.12502
lthumb 4.80702 54.6558
rfemur -2.81332 1.8351 17.2316
rtibia 24.2085
rfoot -16.7985 -1.509
rtoes -3.49438
lfemur -12.4721 -8.05128 -11.9884
ltibia 38.168
lfoot -17.7833 1.29853
ltoes -6.41809
131
root -11.7471 17.7818 0.954815 -166.655 83.7524 -165.694
lowerback 11.9759 1.14776 -1.13047
upperback 1.3068 1.43883 0.109182
thorax -5.37502 0.757962 0.513732
lowerneck -14.4276 -7.76816 -13.4904
upperneck 34.9184 -9.69162 9.50187
head 16.0847 -4.22498 4.81148
rclavicle -1.00386e-014 -1.13307e-014
rhumerus -34.1121 -17.8013 -72.0197
rradius 33.8887
rwrist 5.80989
rhand -22.9836 5.68208
rfingers 7.12502
rthumb 3.45895 -24.2696
lclavicle -1.00386e-014 -1.13307e-014
lhumerus -37.1917 12.8082 79.487
lradius 34.6503
lwrist -9.07563
lhand -21.648 24.7585
lfingers 7.12502
lthumb 4.74869 54.6853
rfemur -3.11856 1.76306 17.0971
rtibia 24.8225
rfoot -17.1537 -1.60225
rtoes -3.80245
lfemur -12.6412 -6.83001 -13.3717
ltibia 38.6182
lfoot -18.6775 0.208318
ltoes -7.51017
